<svg width="78" height="82" viewBox="0 0 78 82" fill="none" xmlns="http://www.w3.org/2000/svg">

<path fill-rule="evenodd" clip-rule="evenodd" d="M41.9926 16.9153L32.3079 5.04797C30.906 7.84411 29.547 12.7791 31.5009 16.3416C30.5525 16.4304 29.6462 16.5989 28.9451 16.8945C24.4724 18.7802 19.5648 23.6523 17.1527 33.7889C16.4542 36.7241 15.1971 38.1297 13.7031 39.8003C12.2937 41.3761 10.6735 43.1877 9.11238 46.7413C5.89626 54.0623 14.5758 61.3832 20.9048 54.7339C24.4631 50.9956 27.5733 49.4523 30.1846 48.1566C33.943 46.2918 36.6677 44.9398 38.2069 38.2941C38.9391 41.394 38.6462 48.7098 31.6165 53.1736C24.5867 57.6375 23.1221 67.0405 23.2686 69.8304H63.2504C63.2504 43.3435 59.9126 20.459 41.9926 16.9153Z" fill="#34364C"/>
<ellipse cx="30.0171" cy="30.41" rx="3.21612" ry="3.37889" fill="#F4F7FA"/>
</svg>
