<svg width="78" height="82" viewBox="0 0 78 82" fill="none" xmlns="http://www.w3.org/2000/svg">
<path d="M24.7722 46.3212C24.2606 47.055 23.6501 47.8191 22.9385 48.6051C20.4272 51.3792 17.3473 53.6616 15.3595 54.855L15.0251 55.0557C13.6891 55.8579 12.8645 57.3506 12.8645 58.9673V69.8304C12.8645 72.3186 14.7844 74.3356 17.1527 74.3356H58.9623C61.3306 74.3356 63.2504 72.3186 63.2504 69.8304V58.9673C63.2504 57.3506 62.4259 55.8579 61.0898 55.0557L60.7554 54.855C58.7676 53.6616 55.6877 51.3792 53.1764 48.6051C52.4648 47.8191 51.8544 47.055 51.3427 46.3212C53.2247 45.8449 54.623 44.0646 54.623 41.9412V34.6076C54.623 33.1437 53.9461 31.7711 52.8078 30.927L50.9865 29.5763C52.0374 27.4311 52.6321 24.9968 52.6321 22.4187C52.6321 13.7694 45.9583 6.75778 37.7256 6.75778C29.493 6.75778 22.8192 13.7694 22.8192 22.4187C22.8192 25.1418 23.4824 27.7038 24.6457 29.9343L23.3071 30.927C22.1688 31.7711 21.4919 33.1437 21.4919 34.6076V41.9412C21.4919 44.0646 22.8902 45.8449 24.7722 46.3212Z" fill="#F4F7FA"/>
<path d="M48.3439 22.4187C48.3439 25.6541 47.0329 28.5679 44.9385 30.6056L50.3349 34.6076V41.9412H45.052C45.3068 45.3405 47.3828 48.7425 50.0691 51.71C52.92 54.8592 56.35 57.3991 58.6279 58.7666L58.9622 58.9673V69.8304H17.1526V58.9673L17.487 58.7666C19.7649 57.3991 23.1949 54.8592 26.0457 51.71C28.7321 48.7425 30.8081 45.3405 31.0629 41.9412H25.78V34.6076L30.8058 30.8804C28.5414 28.8345 27.1073 25.8026 27.1073 22.4187C27.1073 16.2575 31.8613 11.263 37.7256 11.263C43.59 11.263 48.3439 16.2575 48.3439 22.4187Z" fill="#34364C"/>
</svg>
