<svg width="78" height="82" viewBox="0 0 78 82" fill="none" xmlns="http://www.w3.org/2000/svg">

<path d="M30.8692 16.5208C32.8791 15.7084 34.3053 13.6607 34.3053 11.263C34.3053 8.1528 31.9055 5.6315 28.9451 5.6315C25.9848 5.6315 23.5849 8.1528 23.5849 11.263C23.5849 14.1371 25.6343 16.5084 28.2816 16.8518L25.8912 37.1678L14.3677 26.6528C15.4214 25.6244 16.0806 24.1561 16.0806 22.526C16.0806 19.4158 13.6808 16.8945 10.7204 16.8945C7.76008 16.8945 5.36023 19.4158 5.36023 22.526C5.36023 25.6362 7.76008 28.1575 10.7204 28.1575C11.2416 28.1575 11.7453 28.0793 12.2217 27.9336L18.2247 49.5571L24.4325 60.2294L18.2247 61.3832V69.8304L59.0447 69.8304V61.3832L52.7573 60.2247L58.9623 49.5571L64.9653 27.9336C65.4417 28.0793 65.9454 28.1575 66.4666 28.1575C69.4269 28.1575 71.8268 25.6362 71.8268 22.526C71.8268 19.4158 69.4269 16.8945 66.4666 16.8945C63.5062 16.8945 61.1064 19.4158 61.1064 22.526C61.1064 24.1561 61.7656 25.6244 62.8193 26.6528L51.2958 37.1678L48.9054 16.8518C51.5527 16.5084 53.6021 14.1371 53.6021 11.263C53.6021 8.1528 51.2022 5.6315 48.2419 5.6315C45.2815 5.6315 42.8817 8.1528 42.8817 11.263C42.8817 13.6607 44.3079 15.7084 46.3178 16.5208L38.5935 34.9152L30.8692 16.5208Z" fill="#34364C"/>
</svg>
