<svg width="78" height="82" viewBox="0 0 78 82" fill="none" xmlns="http://www.w3.org/2000/svg">
<path d="M19.2967 11.263C19.2967 12.375 19.467 13.445 19.7816 14.4457L17.6649 15.4889C15.9102 13.5779 13.4474 12.3893 10.7204 12.3893C5.39174 12.3893 1.07202 16.9276 1.07202 22.526C1.07202 27.5163 4.50448 31.6645 9.02432 32.5065L14.108 50.8186C14.2142 51.2008 14.368 51.5666 14.5657 51.9063L17.4957 56.9435L17.4777 56.9469C15.4294 57.3276 13.9365 59.1978 13.9365 61.3832V69.8304C13.9365 72.3186 15.8564 74.3356 18.2247 74.3356L59.0447 74.3356C60.182 74.3356 61.2727 73.861 62.0769 73.0161C62.8811 72.1712 63.3329 71.0253 63.3329 69.8304V61.3832C63.3329 59.1953 61.8367 57.3237 59.7855 56.9457L59.6992 56.9298L62.6212 51.9063C62.8189 51.5666 62.9727 51.2008 63.0789 50.8186L68.1626 32.5065C72.6824 31.6645 76.1149 27.5163 76.1149 22.526C76.1149 16.9276 71.7952 12.3893 66.4665 12.3893C63.7361 12.3893 61.2705 13.5809 59.5153 15.4961L57.4024 14.4548C57.7189 13.4514 57.8902 12.3784 57.8902 11.263C57.8902 5.66465 53.5705 1.12631 48.2418 1.12631C42.9132 1.12631 38.5935 5.66465 38.5935 11.263C38.5935 5.66466 34.2737 1.12631 28.9451 1.12631C23.6164 1.12631 19.2967 5.66466 19.2967 11.263Z" fill="#F4F7FA"/>
<path d="M30.8692 16.5208C32.8791 15.7084 34.3053 13.6607 34.3053 11.263C34.3053 8.1528 31.9055 5.6315 28.9451 5.6315C25.9848 5.6315 23.5849 8.1528 23.5849 11.263C23.5849 14.1371 25.6343 16.5084 28.2816 16.8518L25.8912 37.1678L14.3677 26.6528C15.4214 25.6244 16.0806 24.1561 16.0806 22.526C16.0806 19.4158 13.6808 16.8945 10.7204 16.8945C7.76008 16.8945 5.36023 19.4158 5.36023 22.526C5.36023 25.6362 7.76008 28.1575 10.7204 28.1575C11.2416 28.1575 11.7453 28.0793 12.2217 27.9336L18.2247 49.5571L24.4325 60.2294L18.2247 61.3832V69.8304L59.0447 69.8304V61.3832L52.7573 60.2247L58.9623 49.5571L64.9653 27.9336C65.4417 28.0793 65.9454 28.1575 66.4666 28.1575C69.4269 28.1575 71.8268 25.6362 71.8268 22.526C71.8268 19.4158 69.4269 16.8945 66.4666 16.8945C63.5062 16.8945 61.1064 19.4158 61.1064 22.526C61.1064 24.1561 61.7656 25.6244 62.8193 26.6528L51.2958 37.1678L48.9054 16.8518C51.5527 16.5084 53.6021 14.1371 53.6021 11.263C53.6021 8.1528 51.2022 5.6315 48.2419 5.6315C45.2815 5.6315 42.8817 8.1528 42.8817 11.263C42.8817 13.6607 44.3079 15.7084 46.3178 16.5208L38.5935 34.9152L30.8692 16.5208Z" fill="#34364C"/>
</svg>
