<svg width="78" height="82" viewBox="0 0 78 82" fill="none" xmlns="http://www.w3.org/2000/svg">
<path d="M31.8287 0.570985C33.2403 0.404232 34.6388 0.98264 35.5634 2.11555L44.3122 12.8362C54.3593 15.4447 60.1806 23.393 63.4003 33.3154C66.7179 43.5398 67.5386 56.5198 67.5386 69.8304C67.5386 72.3185 65.6187 74.3356 63.2504 74.3356H23.2686C20.992 74.3356 19.1123 72.4666 18.9869 70.0785C18.875 67.9473 19.3418 64.2495 20.7639 60.4725L20.7901 60.4033C16.7514 62.6809 12.2693 62.1353 8.94204 59.6465C4.89845 56.6218 2.65012 50.7007 5.21888 44.8534C7.07123 40.6368 9.06768 38.404 10.578 36.7153C11.9887 35.1379 12.5766 34.4441 12.9925 32.6962C15.5142 22.0989 20.7021 15.9942 26.2734 13.2082C26.1929 12.0009 26.2584 10.8378 26.3993 9.78175C26.7502 7.15319 27.6236 4.72411 28.5139 2.94835C29.1759 1.62801 30.4172 0.737738 31.8287 0.570985Z" fill="#34364C"/>
<path fill-rule="evenodd" clip-rule="evenodd" d="M41.9926 16.9153L32.3079 5.04797C30.906 7.84411 29.547 12.7791 31.5009 16.3416C30.5525 16.4304 29.6462 16.5989 28.9451 16.8945C24.4724 18.7802 19.5648 23.6523 17.1527 33.7889C16.4542 36.7241 15.1971 38.1297 13.7031 39.8003C12.2937 41.3761 10.6735 43.1877 9.11238 46.7413C5.89626 54.0623 14.5758 61.3832 20.9048 54.7339C24.4631 50.9956 27.5733 49.4523 30.1846 48.1566C33.943 46.2918 36.6677 44.9398 38.2069 38.2941C38.9391 41.394 38.6462 48.7098 31.6165 53.1736C24.5867 57.6375 23.1221 67.0405 23.2686 69.8304H63.2504C63.2504 43.3435 59.9126 20.459 41.9926 16.9153Z" fill="#F4F7FA"/>
<ellipse cx="30.0171" cy="30.41" rx="3.21612" ry="3.37889" fill="#34364C"/>
</svg>
