<svg width="78" height="82" viewBox="0 0 78 82" fill="none" xmlns="http://www.w3.org/2000/svg">
<path d="M27.8731 5.6315C28.6541 5.6315 29.3864 5.85089 30.0172 6.23422C30.6479 5.85089 31.3802 5.6315 32.1612 5.6315H43.9537C44.7348 5.6315 45.467 5.85089 46.0978 6.23422C46.7285 5.85089 47.4608 5.6315 48.2419 5.6315H58.9623C61.3305 5.6315 63.2504 7.64854 63.2504 10.1367V20.2734C63.2504 21.6914 62.6149 23.0267 61.5352 23.8775L54.9184 29.0913L56.792 46.807C57.288 51.4972 59.3659 53.8768 62.3928 58.117C62.9495 58.8968 63.2504 59.8453 63.2504 60.8201V69.8304C63.2504 72.3186 61.3306 74.3356 58.9623 74.3356H17.1527C14.7844 74.3356 12.8645 72.3186 12.8645 69.8304V60.8201C12.8645 59.8453 13.1654 58.8968 13.7221 58.1169C16.7491 53.8768 18.8269 51.4972 19.323 46.807L21.1966 29.0913L14.5798 23.8775C13.5 23.0267 12.8645 21.6914 12.8645 20.2734V10.1367C12.8645 7.64854 14.7844 5.6315 17.1527 5.6315H27.8731Z" fill="#34364C"/>
<path d="M17.1526 10.1367H27.8731V16.8945H32.1612V10.1367H43.9537V16.8945H48.2418V10.1367H58.9622V20.2734L50.3859 27.0311L52.53 47.3045H23.5849L25.729 27.0311L17.1526 20.2734V10.1367Z" fill="#F4F7FA"/>
<path d="M23.5849 51.8097H52.53L58.9622 60.8201V69.8304H17.1526V60.8201L23.5849 51.8097Z" fill="#F4F7FA"/>
</svg>
