<svg width="78" height="82" viewBox="0 0 78 82" fill="none" xmlns="http://www.w3.org/2000/svg">
<g clip-path="url(#clip0_502_381)">
<path fill-rule="evenodd" clip-rule="evenodd" d="M32.1633 4.36447C32.2357 1.9323 34.1332 0 36.4494 0H42.8816C45.1978 0 47.0954 1.9323 47.1677 4.36447L47.2054 5.63149H49.3139C51.6822 5.63149 53.602 7.64853 53.602 10.1367V12.8691C58.2763 11.7578 63.3215 12.5001 67.6037 16.2492C76.4997 24.0377 75.6811 40.3643 65.1235 49.2945C62.5756 51.4496 60.5741 53.2362 59.1958 55.077C58.8813 55.497 58.6119 55.9034 58.3852 56.3011L62.7311 56.9187C64.8579 57.2209 66.4445 59.1284 66.4445 61.3832V69.8304C66.4445 72.3186 64.5246 74.3356 62.1564 74.3356H17.1747C14.8064 74.3356 12.8865 72.3186 12.8865 69.8304V61.3832C12.8865 59.1284 14.4731 57.2209 16.5999 56.9187L20.9459 56.3011C20.7191 55.9034 20.4497 55.497 20.1352 55.077C18.7569 53.2362 16.7554 51.4495 14.2076 49.2945C3.64988 40.3643 2.83134 24.0377 11.7273 16.2492C16.0095 12.5001 21.0547 11.7578 25.729 12.8691V10.1367C25.729 7.64853 27.6488 5.63149 30.0171 5.63149H32.1256L32.1633 4.36447Z" fill="#F4F7FA"/>
<path fill-rule="evenodd" clip-rule="evenodd" d="M36.4494 4.50519H42.8817L43.0492 10.1367H49.3139V16.8945H43.2502L43.5447 24.5454C43.6623 24.3999 43.7833 24.2573 43.9081 24.1179C49.7648 17.5782 58.4484 14.0981 64.8585 19.7102C71.2907 25.3417 71.2907 38.2941 62.4343 45.7853C57.4175 50.0288 52.9238 54.1196 53.1452 60.1028L62.1564 61.3832V69.8304H17.1747V61.3832L26.1858 60.1028C26.4073 54.1196 21.9136 50.0288 16.8968 45.7853C8.04033 38.2941 8.04033 25.3417 14.4726 19.7102C20.8827 14.0981 29.5663 17.5782 35.423 24.1179C35.5477 24.2573 35.6688 24.3999 35.7863 24.5454L36.0809 16.8945H30.0172V10.1367H36.2819L36.4494 4.50519ZM30.3903 30.3798C34.3211 37.1443 34.8413 45.0519 34.8413 48.4907C32.8711 48.4944 25.4437 45.0614 21.5112 39.4256C18.6801 35.3682 17.9419 29.3484 20.3688 27.0114C22.7957 24.6744 27.9335 26.152 30.3903 30.3798ZM48.9408 30.3798C45.01 37.1443 44.4897 45.0519 44.4897 48.4907C46.46 48.4944 53.8874 45.0614 57.8199 39.4256C60.6509 35.3682 61.3892 29.3484 58.9623 27.0114C56.5354 24.6744 51.3976 26.152 48.9408 30.3798Z" fill="#34364D"/>
</g>
<defs>
<clipPath id="clip0_502_381">
<rect width="77.187" height="81.0934" fill="white"/>
</clipPath>
</defs>
</svg>
