<svg width="78" height="82" viewBox="0 0 78 82" fill="none" xmlns="http://www.w3.org/2000/svg">
<g clip-path="url(#clip0_502_381)">

<path fill-rule="evenodd" clip-rule="evenodd" d="M36.4494 4.50519H42.8817L43.0492 10.1367H49.3139V16.8945H43.2502L43.5447 24.5454C43.6623 24.3999 43.7833 24.2573 43.9081 24.1179C49.7648 17.5782 58.4484 14.0981 64.8585 19.7102C71.2907 25.3417 71.2907 38.2941 62.4343 45.7853C57.4175 50.0288 52.9238 54.1196 53.1452 60.1028L62.1564 61.3832V69.8304H17.1747V61.3832L26.1858 60.1028C26.4073 54.1196 21.9136 50.0288 16.8968 45.7853C8.04033 38.2941 8.04033 25.3417 14.4726 19.7102C20.8827 14.0981 29.5663 17.5782 35.423 24.1179C35.5477 24.2573 35.6688 24.3999 35.7863 24.5454L36.0809 16.8945H30.0172V10.1367H36.2819L36.4494 4.50519ZM30.3903 30.3798C34.3211 37.1443 34.8413 45.0519 34.8413 48.4907C32.8711 48.4944 25.4437 45.0614 21.5112 39.4256C18.6801 35.3682 17.9419 29.3484 20.3688 27.0114C22.7957 24.6744 27.9335 26.152 30.3903 30.3798ZM48.9408 30.3798C45.01 37.1443 44.4897 45.0519 44.4897 48.4907C46.46 48.4944 53.8874 45.0614 57.8199 39.4256C60.6509 35.3682 61.3892 29.3484 58.9623 27.0114C56.5354 24.6744 51.3976 26.152 48.9408 30.3798Z" fill="#34364D"/>
</g>
<defs>
<clipPath id="clip0_502_381">
<rect width="77.187" height="81.0934" fill="white"/>
</clipPath>
</defs>
</svg>
