<svg width="78" height="82" viewBox="0 0 78 82" fill="none" xmlns="http://www.w3.org/2000/svg">
<path d="M28.2097 19.0163C27.7788 17.7726 27.5432 16.4302 27.5432 15.0317C27.5432 8.59605 32.509 3.37891 38.6347 3.37891C44.7604 3.37891 49.7262 8.59605 49.7262 15.0317C49.7262 16.9169 49.2974 18.7039 48.5372 20.2841C49.6311 20.3636 50.694 20.8814 51.469 21.8119C55.6796 26.8675 59.3643 34.0759 59.3643 42.4311C59.3643 48.4045 57.4069 52.8308 54.7619 56.0201L59.7855 56.9457C61.8367 57.3237 63.3329 59.1953 63.3329 61.3832V69.8304C63.3329 71.0253 62.8811 72.1712 62.0769 73.0161C61.2727 73.861 60.182 74.3356 59.0447 74.3356L18.2247 74.3356C15.8564 74.3356 13.9365 72.3186 13.9365 69.8304V61.3832C13.9365 59.1978 15.4294 57.3276 17.4777 56.9469L22.0093 56.1047C19.3282 52.9094 17.3382 48.4582 17.3382 42.4311C17.3382 35.9124 19.7427 30.2353 22.5628 25.8846C24.3354 23.15 26.3423 20.8283 28.2097 19.0163Z" fill="#34364C"/>
<path d="M40.7375 41.8355H36.4494C36.4494 33.563 38.8376 25.3044 44.121 19.2593C44.9489 18.0753 45.438 16.6135 45.438 15.0317C45.438 11.0842 42.3921 7.88409 38.6347 7.88409C34.8773 7.88409 31.8313 11.0842 31.8313 15.0317C31.8313 16.9794 32.5728 18.745 33.7753 20.0342C29.5255 23.2172 21.6263 31.7491 21.6263 42.4311C21.6263 53.2112 29.6711 57.5754 33.8913 58.4714L18.2247 61.3832V69.8304L59.0447 69.8304V61.3832L43.0065 58.428C47.2745 57.441 55.0761 53.047 55.0761 42.4311C55.0761 35.48 51.994 29.2837 48.2418 24.7786C44.121 28.1574 40.7375 36.0415 40.7375 41.8355Z" fill="#F4F7FA"/>
</svg>
