<svg width="78" height="82" viewBox="0 0 78 82" fill="none" xmlns="http://www.w3.org/2000/svg">

<path d="M48.3439 22.4187C48.3439 25.6541 47.0329 28.5679 44.9385 30.6056L50.3349 34.6076V41.9412H45.052C45.3068 45.3405 47.3828 48.7425 50.0691 51.71C52.92 54.8592 56.35 57.3991 58.6279 58.7666L58.9622 58.9673V69.8304H17.1526V58.9673L17.487 58.7666C19.7649 57.3991 23.1949 54.8592 26.0457 51.71C28.7321 48.7425 30.8081 45.3405 31.0629 41.9412H25.78V34.6076L30.8058 30.8804C28.5414 28.8345 27.1073 25.8026 27.1073 22.4187C27.1073 16.2575 31.8613 11.263 37.7256 11.263C43.59 11.263 48.3439 16.2575 48.3439 22.4187Z" fill="#34364C"/>
</svg>
